{"title":"Atlantis S01E06 The Song of the Sirens HDTV 480p x264 AAC E-Subs","uid":9137852,"size":127936677,"categoryP":"video","categoryS":"tv_shows","magnet":"?xt=urn:btih:2328b4544566c9a81bc2c89d5af0e61d6816343e&amp;dn=Atlantis+S01E06+The+Song+of+the+Sirens+HDTV+480p+x264+AAC+E-Subs&amp;tr=udp%3A%2F%2Ftracker.openbittorrent.com%3A80&amp;tr=udp%3A%2F%2Fopen.demonii.com%3A1337&amp;tr=udp%3A%2F%2Ftracker.coppersurfer.tk%3A6969&amp;tr=udp%3A%2F%2Fexodus.desync.com%3A6969","seeders":2,"leechers":3,"uploader":"canc232","files":1,"time":1383449156,"description":"Atlantis S01E06 The Song of the Sirens HDTV 480p x264 AAC E-Subs [GWC]\n\n\nSCREENS : &lt;a href=&quot;\nhttp://s20.postimg.org/o6doywlq5/Atla_1.jpg&quot; rel=&quot;nofollow&quot; target=&quot;_NEW&quot;&gt;\nhttp://s20.postimg.org/o6doywlq5/Atla_1.jpg&lt;/a&gt;\n &lt;a href=&quot;\nhttp://s20.postimg.org/p9xtav6d9/Atla_2.jpg&quot; rel=&quot;nofollow&quot; target=&quot;_NEW&quot;&gt;\nhttp://s20.postimg.org/p9xtav6d9/Atla_2.jpg&lt;/a&gt;\n &lt;a href=&quot;\nhttp://s20.postimg.org/4r2x5ssfx/Atla_3.jpg&quot; rel=&quot;nofollow&quot; target=&quot;_NEW&quot;&gt;\nhttp://s20.postimg.org/4r2x5ssfx/Atla_3.jpg&lt;/a&gt;\n\n\nMEDIA INFO :\n\nGeneral \nFormat : MPEG-4 \nFormat profile : Base Media \nFile size : 122 MiB \nDuration : 43mn 49s \nOverall bit rate mode : Variable \nOverall bit rate : 389 Kbps \n\nVideo \nFormat : AVC \nFormat profile : &lt;a class=&quot;__cf_email__&quot; href=&quot;/cdn-cgi/l/email-protection&quot; data-cfemail=&quot;367e5f515e767a051806&quot;&gt;[email&amp;#160;protected]&lt;/a&gt;&lt;script cf-hash='f9e31' type=&quot;text/javascript&quot;&gt;\n/* &lt;![CDATA[ */!function(){try{var t=&quot;currentScript&quot;in document?document.currentScript:function(){for(var t=document.getElementsByTagName(&quot;script&quot;),e=t.length;e--;)if(t[e].getAttribute(&quot;cf-hash&quot;))return t[e]}();if(t&amp;&amp;t.previousSibling){var e,r,n,i,c=t.previousSibling,a=c.getAttribute(&quot;data-cfemail&quot;);if(a){for(e=&quot;&quot;,r=parseInt(a.substr(0,2),16),n=2;a.length-n;n+=2)i=parseInt(a.substr(n,2),16)^r,e+=String.fromCharCode(i);e=document.createTextNode(e),c.parentNode.replaceChild(e,c)}}}catch(u){}}();/* ]]&gt; */&lt;/script&gt; \nFormat settings, CABAC : Yes \nFormat settings, ReFrames : 4 frames \nDuration : 43mn 49s \nBit rate : 326 Kbps \nWidth : 720 pixels \nHeight : 404 pixels \nDisplay aspect ratio : 16:9 \nFrame rate : 25.000 fps \nStream size : 102 MiB (84%) \nTitle : Atlantis S01E06 The Song of the Sirens HDTV 480p x264 AAC E-Subs [GWC] \nWriting library : x264 core\n\nAudio \nFormat : AAC \nFormat profile : HE-AAC / LC \nDuration : 43mn 49s \nBit rate mode : Variable \nChannel(s) : 2 channels \nSampling rate : 48.0 KHz / 24.0 KHz \nStream size : 18.8 MiB (15%)\nLanguage : English\n\nText \nFormat : Timed Text \nCodec ID : tx3g \nDuration : 43mn 29s \nDelay relative to video : 80ms \nStream size : 19.1 KiB (0%) \nTitle : English Subtitle by Stubbie \nLanguage : English","torrent":{"xt":"urn:btih:2328b4544566c9a81bc2c89d5af0e61d6816343e","amp;dn":"Atlantis+S01E06+The+Song+of+the+Sirens+HDTV+480p+x264+AAC+E-Subs","amp;tr":["udp%3A%2F%2Ftracker.openbittorrent.com%3A80","udp%3A%2F%2Fopen.demonii.com%3A1337","udp%3A%2F%2Ftracker.coppersurfer.tk%3A6969","udp%3A%2F%2Fexodus.desync.com%3A6969"],"infoHash":"2328b4544566c9a81bc2c89d5af0e61d6816343e","infoHashBuffer":{"type":"Buffer","data":[35,40,180,84,69,102,201,168,27,194,200,157,90,240,230,29,104,22,52,62]},"announce":[],"urlList":[]}}